<?xml version="1.0" encoding="UTF-8" standalone="no"?>
<!-- Created with Inkscape (http://www.inkscape.org/) -->

<svg
   version="1.1"
   id="svg2"
   xml:space="preserve"
   width="3480.0063"
   height="1041.8676"
   viewBox="0 0 3480.0063 1041.8675"
   sodipodi:docname="8f5933f7c1eaad98f39c317e4b420563.eps"
   xmlns:inkscape="http://www.inkscape.org/namespaces/inkscape"
   xmlns:sodipodi="http://sodipodi.sourceforge.net/DTD/sodipodi-0.dtd"
   xmlns="http://www.w3.org/2000/svg"
   xmlns:svg="http://www.w3.org/2000/svg"><defs
     id="defs6"><clipPath
       clipPathUnits="userSpaceOnUse"
       id="clipPath22"><path
         d="M 0,6 V 7820 H 26100 V 6 Z"
         id="path20" /></clipPath></defs><sodipodi:namedview
     id="namedview4"
     pagecolor="#ffffff"
     bordercolor="#666666"
     borderopacity="1.0"
     inkscape:pageshadow="2"
     inkscape:pageopacity="0.0"
     inkscape:pagecheckerboard="0" /><g
     id="g8"
     inkscape:groupmode="layer"
     inkscape:label="ink_ext_XXXXXX"
     transform="matrix(1.3333333,0,0,-1.3333333,0,1042.6676)"><g
       id="g10"
       transform="scale(0.1)"><g
         id="g12"
         transform="scale(1.60123)"><path
           d="M 0,4883.75 H 16300 V 4.12281 H 0"
           style="fill:#1d373f;fill-opacity:1;fill-rule:nonzero;stroke:none"
           id="path14" /></g><g
         id="g16"><g
           id="g18"
           clip-path="url(#clipPath22)"><path
             d="m 14510.6,4583.63 c -357.2,-357.11 -936.2,-357.11 -1293.3,0 L 8543.36,9257.46 c -357.11,357.15 -357.11,936.14 0,1293.34 357.15,357.1 936.17,357.1 1293.24,0 l 4674,-4673.92 c 357,-357.15 357,-936.18 0,-1293.25"
             style="fill:#254752;fill-opacity:1;fill-rule:nonzero;stroke:none"
             id="path24" /><path
             d="m 14394.6,2317.62 c -147.5,-147.39 -386.4,-147.39 -533.8,0 l -822.7,822.54 c -147.4,147.46 -147.4,386.44 0,533.9 147.5,147.42 386.5,147.42 533.9,0 l 822.6,-822.65 c 147.3,-147.39 147.3,-386.37 0,-533.79"
             style="fill:#3eb9e2;fill-opacity:1;fill-rule:nonzero;stroke:none"
             id="path26" /><g
             id="g28"
             transform="scale(1.05306)"><path
               d="m 16023.2,-2351.55 c -276.7,-276.72 -725.4,-276.72 -1002.2,0 l -4664.2,4664.22 c -276.8,276.8 -276.8,725.5 0,1002.21 276.7,276.81 725.4,276.81 1002.2,0 l 4664.2,-4664.22 c 276.8,-276.72 276.8,-725.45 0,-1002.21"
               style="fill:#307288;fill-opacity:1;fill-rule:nonzero;stroke:none"
               id="path30" /></g><g
             id="g32"
             transform="scale(1.03061)"><path
               d="m 16157,4760.7 c -143.1,-143.01 -374.9,-143.01 -518,0 l -4406.2,4406.24 c -143,143 -143,374.89 0,517.93 143,143.04 374.9,143.04 518,0 L 16157,5278.63 c 143,-143 143,-374.89 0,-517.93"
               style="fill:#3eb9e2;fill-opacity:1;fill-rule:nonzero;stroke:none"
               id="path34" /></g><g
             id="g36"
             transform="scale(1.60123)"><path
               d="M 16300,4883.73 V 4.09598 H 14207.1 L 9327.49,4883.73 Z"
               style="fill:#3eb9e2;fill-opacity:1;fill-rule:nonzero;stroke:none"
               id="path38" /></g><g
             id="g40"
             transform="scale(1.5055)"><path
               d="m 16062.8,-1192.84 c -237.2,-237.17 -621.9,-237.17 -859,0 L 11584.1,2426.8 c -237.2,237.23 -237.2,621.84 0,859.01 237.2,237.25 621.9,237.25 859,0 l 3619.7,-3619.637 c 237.2,-237.177 237.2,-621.779 0,-859.013"
               style="fill:#307288;fill-opacity:1;fill-rule:nonzero;stroke:none"
               id="path42" /></g><g
             id="g44"
             transform="scale(1.60123)"><path
               d="m 16734,-754.478 c -92.1,-92.065 -241.3,-92.065 -333.4,0 L 14591.4,1054.66 c -92,92.07 -92,241.32 0,333.39 92.1,92.09 241.3,92.09 333.4,0 L 16734,-421.064 c 92,-92.117 92,-241.316 0,-333.414"
               style="fill:#254752;fill-opacity:1;fill-rule:nonzero;stroke:none"
               id="path46" /></g><g
             id="g48"
             transform="scale(1.60123)"><path
               d="m 16760.2,685.731 c -62.8,-62.796 -164.7,-62.796 -227.5,0 l -1915,1915.029 c -62.8,62.85 -62.8,164.69 0,227.49 62.8,62.85 164.6,62.85 227.5,0 l 1915,-1914.988 c 62.8,-62.84 62.8,-164.717 0,-227.531"
               style="fill:#307288;fill-opacity:1;fill-rule:nonzero;stroke:none"
               id="path50" /></g><g
             id="g52"
             transform="scale(1.35185)"><path
               d="m 16092.6,4126.62 c -207.4,-207.41 -543.6,-207.41 -751,0 l -3663,3663.03 c -207.4,207.35 -207.4,543.58 0,750.99 207.4,207.41 543.6,207.41 751,0 l 3663,-3663.02 c 207.4,-207.41 207.4,-543.64 0,-751"
               style="fill:#307288;fill-opacity:1;fill-rule:nonzero;stroke:none"
               id="path54" /></g><g
             id="g56"
             transform="scale(1.08077)"><path
               d="m 16163.6,-700.414 c -136.4,-136.404 -357.6,-136.404 -493.9,0 L 13860.2,1109.05 c -136.3,136.37 -136.3,357.49 0,493.9 136.4,136.4 357.6,136.4 493.9,0 l 1809.5,-1809.396 c 136.4,-136.476 136.4,-357.531 0,-493.968"
               style="fill:#3eb9e2;fill-opacity:1;fill-rule:nonzero;stroke:none"
               id="path58" /></g><path
             d="m 16249.2,3433.71 c 0,-315.78 -256,-571.8 -571.8,-571.8 -315.8,0 -571.7,256.02 -571.7,571.8 0,315.74 255.9,571.72 571.7,571.72 315.8,0 571.8,-255.98 571.8,-571.72"
             style="fill:#254752;fill-opacity:1;fill-rule:nonzero;stroke:none"
             id="path60" /><g
             id="g62"
             transform="scale(1.13944)"><path
               d="m 16300,1268.75 c 0,-447.994 -363.2,-811.146 -811.1,-811.146 -448,0 -811.2,363.152 -811.2,811.146 0,447.97 363.2,811.12 811.2,811.12 447.9,0 811.1,-363.15 811.1,-811.12"
               style="fill:#307288;fill-opacity:1;fill-rule:nonzero;stroke:none"
               id="path64" /></g><path
             d="m 12727.1,4007.38 c -147.4,-147.38 -386.4,-147.38 -533.9,0 l -144.3,144.42 c -147.4,147.38 -147.4,386.36 0,533.79 147.4,147.38 386.4,147.38 533.8,0 l 144.4,-144.42 c 147.4,-147.38 147.4,-386.37 0,-533.79"
             style="fill:#3eb9e2;fill-opacity:1;fill-rule:nonzero;stroke:none"
             id="path66" /></g></g></g></g></svg>
